<mxfile host="65bd71144e">
    <diagram id="7D7Y1vCRq8nWwCYkhVjj" name="architecture">
        <mxGraphModel dx="734" dy="448" grid="1" gridSize="10" guides="1" tooltips="1" connect="1" arrows="1" fold="1" page="1" pageScale="1" pageWidth="827" pageHeight="1169" background="#ffffff" math="0" shadow="0">
            <root>
                <mxCell id="0"/>
                <mxCell id="1" parent="0"/>
                <mxCell id="3" value="AWS Cloud" style="points=[[0,0],[0.25,0],[0.5,0],[0.75,0],[1,0],[1,0.25],[1,0.5],[1,0.75],[1,1],[0.75,1],[0.5,1],[0.25,1],[0,1],[0,0.75],[0,0.5],[0,0.25]];outlineConnect=0;gradientColor=none;html=1;whiteSpace=wrap;fontSize=12;fontStyle=0;container=1;pointerEvents=0;collapsible=0;recursiveResize=0;shape=mxgraph.aws4.group;grIcon=mxgraph.aws4.group_aws_cloud_alt;strokeColor=#232F3E;fillColor=none;verticalAlign=top;align=left;spacingLeft=30;fontColor=#232F3E;dashed=0;" vertex="1" parent="1">
                    <mxGeometry x="370" y="50" width="380" height="330" as="geometry"/>
                </mxCell>
                <mxCell id="6" value="&lt;font style=&quot;font-size: 14px&quot;&gt;&lt;b&gt;CodeBuild&lt;/b&gt;&lt;/font&gt;" style="sketch=0;points=[[0,0,0],[0.25,0,0],[0.5,0,0],[0.75,0,0],[1,0,0],[0,1,0],[0.25,1,0],[0.5,1,0],[0.75,1,0],[1,1,0],[0,0.25,0],[0,0.5,0],[0,0.75,0],[1,0.25,0],[1,0.5,0],[1,0.75,0]];outlineConnect=0;fontColor=#232F3E;gradientColor=#4D72F3;gradientDirection=north;fillColor=#3334B9;strokeColor=#ffffff;dashed=0;verticalLabelPosition=bottom;verticalAlign=top;align=center;html=1;fontSize=12;fontStyle=0;aspect=fixed;shape=mxgraph.aws4.resourceIcon;resIcon=mxgraph.aws4.codebuild;" vertex="1" parent="3">
                    <mxGeometry x="60" y="70" width="78" height="78" as="geometry"/>
                </mxCell>
                <mxCell id="7" value="&lt;b&gt;&lt;font style=&quot;font-size: 14px&quot;&gt;CloudWatch Logs&lt;/font&gt;&lt;/b&gt;" style="sketch=0;outlineConnect=0;fontColor=#232F3E;gradientColor=none;fillColor=#B0084D;strokeColor=none;dashed=0;verticalLabelPosition=bottom;verticalAlign=top;align=center;html=1;fontSize=12;fontStyle=0;aspect=fixed;pointerEvents=1;shape=mxgraph.aws4.logs;" vertex="1" parent="3">
                    <mxGeometry x="60" y="240" width="78" height="58" as="geometry"/>
                </mxCell>
                <mxCell id="8" value="&lt;b&gt;&lt;font style=&quot;font-size: 14px&quot;&gt;SNS&lt;/font&gt;&lt;/b&gt;" style="sketch=0;points=[[0,0,0],[0.25,0,0],[0.5,0,0],[0.75,0,0],[1,0,0],[0,1,0],[0.25,1,0],[0.5,1,0],[0.75,1,0],[1,1,0],[0,0.25,0],[0,0.5,0],[0,0.75,0],[1,0.25,0],[1,0.5,0],[1,0.75,0]];outlineConnect=0;fontColor=#232F3E;gradientColor=#FF4F8B;gradientDirection=north;fillColor=#BC1356;strokeColor=#ffffff;dashed=0;verticalLabelPosition=bottom;verticalAlign=top;align=center;html=1;fontSize=12;fontStyle=0;aspect=fixed;shape=mxgraph.aws4.resourceIcon;resIcon=mxgraph.aws4.sns;" vertex="1" parent="3">
                    <mxGeometry x="282" y="70" width="78" height="78" as="geometry"/>
                </mxCell>
                <mxCell id="20" value="" style="html=1;endArrow=block;elbow=vertical;startArrow=none;endFill=1;strokeColor=#545B64;rounded=0;fontSize=14;fontColor=#4D4D4D;strokeWidth=2;" edge="1" parent="3">
                    <mxGeometry width="100" relative="1" as="geometry">
                        <mxPoint x="98.5" y="170.25" as="sourcePoint"/>
                        <mxPoint x="98.5" y="230" as="targetPoint"/>
                    </mxGeometry>
                </mxCell>
                <mxCell id="21" value="&lt;span style=&quot;font-size: 12px&quot;&gt;③ビルドログ出力&lt;/span&gt;" style="text;html=1;strokeColor=none;fillColor=#FFFFFF;align=center;verticalAlign=middle;whiteSpace=wrap;rounded=0;fontSize=14;fontColor=#4D4D4D;" vertex="1" parent="3">
                    <mxGeometry x="110" y="180" width="120" height="30" as="geometry"/>
                </mxCell>
                <mxCell id="22" value="" style="html=1;endArrow=block;elbow=vertical;startArrow=none;endFill=1;strokeColor=#545B64;rounded=0;fontSize=14;fontColor=#4D4D4D;strokeWidth=2;" edge="1" parent="3">
                    <mxGeometry width="100" relative="1" as="geometry">
                        <mxPoint x="150" y="108.75" as="sourcePoint"/>
                        <mxPoint x="260" y="108.5" as="targetPoint"/>
                        <Array as="points">
                            <mxPoint x="210" y="108.5"/>
                        </Array>
                    </mxGeometry>
                </mxCell>
                <mxCell id="23" value="&lt;span style=&quot;font-size: 12px&quot;&gt;④ビルドステータス通知&lt;/span&gt;" style="text;html=1;strokeColor=none;fillColor=#FFFFFF;align=center;verticalAlign=middle;whiteSpace=wrap;rounded=0;fontSize=14;fontColor=#4D4D4D;" vertex="1" parent="3">
                    <mxGeometry x="140" y="75" width="140" height="30" as="geometry"/>
                </mxCell>
                <mxCell id="4" value="&lt;font style=&quot;font-size: 14px&quot;&gt;&lt;b&gt;ユーザ&lt;/b&gt;&lt;/font&gt;" style="sketch=0;outlineConnect=0;gradientColor=none;fontColor=#545B64;strokeColor=none;fillColor=#879196;dashed=0;verticalLabelPosition=bottom;verticalAlign=top;align=center;html=1;fontSize=12;fontStyle=0;aspect=fixed;shape=mxgraph.aws4.illustration_users;pointerEvents=1" vertex="1" parent="1">
                    <mxGeometry x="40" y="123.75" width="60" height="60" as="geometry"/>
                </mxCell>
                <mxCell id="5" value="&lt;b&gt;&lt;font color=&quot;#4d4d4d&quot;&gt;GitHub&lt;/font&gt;&lt;/b&gt;" style="dashed=0;outlineConnect=0;html=1;align=center;labelPosition=center;verticalLabelPosition=bottom;verticalAlign=top;shape=mxgraph.weblogos.github;fontSize=14;" vertex="1" parent="1">
                    <mxGeometry x="230" y="120" width="70" height="67.5" as="geometry"/>
                </mxCell>
                <mxCell id="14" value="" style="shape=message;html=1;whiteSpace=wrap;html=1;outlineConnect=0;fontSize=14;fontColor=#4D4D4D;" vertex="1" parent="1">
                    <mxGeometry x="870" y="143.75" width="60" height="40" as="geometry"/>
                </mxCell>
                <mxCell id="16" value="" style="html=1;endArrow=block;elbow=vertical;startArrow=none;endFill=1;strokeColor=#545B64;rounded=0;fontSize=14;fontColor=#4D4D4D;strokeWidth=2;" edge="1" parent="1">
                    <mxGeometry width="100" relative="1" as="geometry">
                        <mxPoint x="110" y="160.25" as="sourcePoint"/>
                        <mxPoint x="220" y="160" as="targetPoint"/>
                    </mxGeometry>
                </mxCell>
                <mxCell id="17" value="&lt;font style=&quot;font-size: 12px&quot;&gt;①プルリクエスト&lt;/font&gt;" style="text;html=1;strokeColor=none;fillColor=#FFFFFF;align=center;verticalAlign=middle;whiteSpace=wrap;rounded=0;fontSize=14;fontColor=#4D4D4D;" vertex="1" parent="1">
                    <mxGeometry x="100" y="123.75" width="120" height="30" as="geometry"/>
                </mxCell>
                <mxCell id="18" value="" style="html=1;endArrow=block;elbow=vertical;startArrow=none;endFill=1;strokeColor=#545B64;rounded=0;fontSize=14;fontColor=#4D4D4D;strokeWidth=2;" edge="1" parent="1">
                    <mxGeometry width="100" relative="1" as="geometry">
                        <mxPoint x="304" y="158.75" as="sourcePoint"/>
                        <mxPoint x="414" y="158.5" as="targetPoint"/>
                        <Array as="points">
                            <mxPoint x="364" y="158.5"/>
                        </Array>
                    </mxGeometry>
                </mxCell>
                <mxCell id="19" value="&lt;span style=&quot;font-size: 12px&quot;&gt;②Webhook Event&lt;/span&gt;" style="text;html=1;strokeColor=none;fillColor=#FFFFFF;align=center;verticalAlign=middle;whiteSpace=wrap;rounded=0;fontSize=14;fontColor=#4D4D4D;" vertex="1" parent="1">
                    <mxGeometry x="300" y="123.75" width="120" height="30" as="geometry"/>
                </mxCell>
                <mxCell id="24" value="" style="html=1;endArrow=block;elbow=vertical;startArrow=none;endFill=1;strokeColor=#545B64;rounded=0;fontSize=14;fontColor=#4D4D4D;strokeWidth=2;" edge="1" parent="1">
                    <mxGeometry width="100" relative="1" as="geometry">
                        <mxPoint x="740" y="161.5" as="sourcePoint"/>
                        <mxPoint x="850" y="161.25" as="targetPoint"/>
                        <Array as="points">
                            <mxPoint x="780" y="161.75"/>
                            <mxPoint x="800" y="161.25"/>
                        </Array>
                    </mxGeometry>
                </mxCell>
                <mxCell id="25" value="&lt;span style=&quot;font-size: 12px&quot;&gt;⑤メール通知&lt;/span&gt;" style="text;html=1;strokeColor=none;fillColor=#FFFFFF;align=center;verticalAlign=middle;whiteSpace=wrap;rounded=0;fontSize=14;fontColor=#4D4D4D;" vertex="1" parent="1">
                    <mxGeometry x="730" y="123.75" width="140" height="30" as="geometry"/>
                </mxCell>
                <mxCell id="26" value="&lt;span style=&quot;font-size: 12px&quot;&gt;&lt;b&gt;メール&lt;/b&gt;&lt;/span&gt;" style="text;html=1;strokeColor=none;fillColor=none;align=center;verticalAlign=middle;whiteSpace=wrap;rounded=0;fontSize=14;fontColor=#4D4D4D;" vertex="1" parent="1">
                    <mxGeometry x="840" y="187.5" width="120" height="30" as="geometry"/>
                </mxCell>
            </root>
        </mxGraphModel>
    </diagram>
</mxfile>